<svg width="43" height="42" viewBox="0 0 43 42" fill="none" xmlns="http://www.w3.org/2000/svg">
<rect x="0.800903" y="0.399902" width="41.6" height="41.6" rx="20.8" fill="white" fill-opacity="0.05"/>
<g clip-path="url(#clip0_0_2430)">
<path d="M20.4584 30.6143C14.8543 30.6143 10.3022 26.0622 10.3022 20.458C10.3022 14.8538 14.8543 10.3018 20.4584 10.3018C26.0626 10.3018 30.6147 14.8538 30.6147 20.458C30.6147 26.0622 26.0626 30.6143 20.4584 30.6143ZM20.4584 11.8643C15.7189 11.8643 11.8647 15.7184 11.8647 20.458C11.8647 25.1976 15.7189 29.0518 20.4584 29.0518C25.198 29.0518 29.0522 25.1976 29.0522 20.458C29.0522 15.7184 25.198 11.8643 20.4584 11.8643Z" fill="white"/>
<path d="M30.0001 32.7391C29.9168 32.7391 29.8334 32.7287 29.7605 32.7183C29.2709 32.6558 28.3855 32.3224 27.8855 30.8328C27.6251 30.0516 27.7188 29.2703 28.1459 28.6766C28.573 28.0828 29.2918 27.7495 30.1147 27.7495C31.1772 27.7495 32.0105 28.1558 32.3855 28.8745C32.7605 29.5933 32.6563 30.5099 32.0626 31.3953C31.323 32.5099 30.5209 32.7391 30.0001 32.7391ZM29.3751 30.3433C29.5522 30.8849 29.8022 31.1558 29.9688 31.1766C30.1355 31.1974 30.448 30.9995 30.7709 30.5308C31.073 30.0828 31.0938 29.7599 31.0209 29.6141C30.948 29.4683 30.6563 29.312 30.1147 29.312C29.7918 29.312 29.5522 29.4162 29.4168 29.5933C29.2918 29.7703 29.2709 30.0412 29.3751 30.3433Z" fill="white"/>
</g>
<defs>
<clipPath id="clip0_0_2430">
<rect width="25" height="25" fill="white" transform="translate(9.00012 8.99951)"/>
</clipPath>
</defs>
</svg>
