<svg width="18" height="35" viewBox="0 0 18 35" fill="none" xmlns="http://www.w3.org/2000/svg">
<path d="M1.5256 34.5359C1.15023 34.5359 0.774866 34.3976 0.478524 34.1013C-0.0944039 33.5283 -0.0944039 32.58 0.478524 32.0071L13.3595 19.1261C14.3078 18.1778 14.3078 16.6368 13.3595 15.6885L0.478524 2.80754C-0.0944039 2.23461 -0.0944039 1.28632 0.478524 0.713388C1.05145 0.140459 1.99975 0.140459 2.57267 0.713388L15.4537 13.5944C16.4612 14.602 17.0342 15.9651 17.0342 17.4073C17.0342 18.8495 16.481 20.2127 15.4537 21.2203L2.57267 34.1013C2.27633 34.3779 1.90097 34.5359 1.5256 34.5359Z" fill="white"/>
</svg>
