<svg width="42" height="42" viewBox="0 0 42 42" fill="none" xmlns="http://www.w3.org/2000/svg">
<rect x="0.000915527" y="0.399902" width="41.6" height="41.6" rx="20.8" fill="white" fill-opacity="0.05"/>
<path d="M26.1259 32.1686C29.2325 32.1686 31.7509 29.7093 31.7509 26.6756C31.7509 23.6419 29.2325 21.1826 26.1259 21.1826C23.0193 21.1826 20.5009 23.6419 20.5009 26.6756C20.5009 29.7093 23.0193 32.1686 26.1259 32.1686Z" fill="#EDFF81"/>
<path d="M27.8134 17.887C29.988 17.887 31.7509 16.1655 31.7509 14.0419C31.7509 11.9183 29.988 10.1968 27.8134 10.1968C25.6388 10.1968 23.8759 11.9183 23.8759 14.0419C23.8759 16.1655 25.6388 17.887 27.8134 17.887Z" fill="white"/>
<path d="M13.2222 32.1355C15.3969 32.1355 17.1597 30.414 17.1597 28.2904C17.1597 26.1668 15.3969 24.4453 13.2222 24.4453C11.0476 24.4453 9.28473 26.1668 9.28473 28.2904C9.28473 30.414 11.0476 32.1355 13.2222 32.1355Z" fill="white"/>
<path d="M14.8759 21.1828C17.9825 21.1828 20.5009 18.7235 20.5009 15.6898C20.5009 12.6561 17.9825 10.1968 14.8759 10.1968C11.7693 10.1968 9.25092 12.6561 9.25092 15.6898C9.25092 18.7235 11.7693 21.1828 14.8759 21.1828Z" fill="#EDFF81"/>
</svg>
