<svg width="390" height="342" viewBox="0 0 390 342" fill="none" xmlns="http://www.w3.org/2000/svg">
<rect width="390" height="342" fill="#B4E925"/>
<mask id="mask0_1_355" style="mask-type:alpha" maskUnits="userSpaceOnUse" x="0" y="0" width="390" height="342">
<rect width="390" height="342" fill="#F1EA00"/>
</mask>
<g mask="url(#mask0_1_355)">
<g opacity="0.5" filter="url(#filter0_f_1_355)">
<ellipse cx="58.2927" cy="330.548" rx="136.654" ry="123.386" fill="#5FC211"/>
</g>
<g opacity="0.5" filter="url(#filter1_f_1_355)">
<ellipse cx="183.851" cy="324.747" rx="71.831" ry="64.8566" fill="#8AD51B"/>
</g>
<g opacity="0.8" filter="url(#filter2_f_1_355)">
<path d="M243.757 48.3173C258.093 68.7105 264.894 92.7478 263.259 117.246C261.624 141.745 251.63 165.548 234.6 185.506C217.57 205.463 194.308 220.633 167.894 229.006C141.479 237.379 113.159 238.56 86.6828 232.394C60.2065 226.227 36.823 213.003 19.6287 194.474C2.43432 175.944 -7.75976 152.982 -9.60376 128.629C-11.4478 104.276 -4.85467 79.68 9.30246 58.0981C23.4596 36.5161 44.513 18.9663 69.6748 7.77252L126.795 115.35L243.757 48.3173Z" fill="#8AD51B"/>
</g>
</g>
<defs>
<filter id="filter0_f_1_355" x="-103.308" y="182.215" width="323.201" height="296.665" filterUnits="userSpaceOnUse" color-interpolation-filters="sRGB">
<feFlood flood-opacity="0" result="BackgroundImageFix"/>
<feBlend mode="normal" in="SourceGraphic" in2="BackgroundImageFix" result="shape"/>
<feGaussianBlur stdDeviation="12.4733" result="effect1_foregroundBlur_1_355"/>
</filter>
<filter id="filter1_f_1_355" x="91.2316" y="239.101" width="185.24" height="171.291" filterUnits="userSpaceOnUse" color-interpolation-filters="sRGB">
<feFlood flood-opacity="0" result="BackgroundImageFix"/>
<feBlend mode="normal" in="SourceGraphic" in2="BackgroundImageFix" result="shape"/>
<feGaussianBlur stdDeviation="10.3945" result="effect1_foregroundBlur_1_355"/>
</filter>
<filter id="filter2_f_1_355" x="-34.8539" y="-17.1742" width="323.298" height="278.407" filterUnits="userSpaceOnUse" color-interpolation-filters="sRGB">
<feFlood flood-opacity="0" result="BackgroundImageFix"/>
<feBlend mode="normal" in="SourceGraphic" in2="BackgroundImageFix" result="shape"/>
<feGaussianBlur stdDeviation="12.4733" result="effect1_foregroundBlur_1_355"/>
</filter>
</defs>
</svg>
