<svg width="42" height="42" viewBox="0 0 42 42" fill="none" xmlns="http://www.w3.org/2000/svg">
<rect x="0.40094" y="0.399902" width="41.6" height="41.6" rx="20.8" fill="white" fill-opacity="0.05"/>
<path d="M25.6047 27.8016C25.2818 27.8016 24.9589 27.7078 24.6776 27.5203L23.6776 26.8641C23.3964 26.6766 23.261 26.3225 23.3547 25.9995C23.4276 25.76 23.4589 25.4786 23.4589 25.1661V20.9266C23.4589 19.2286 22.3964 18.1662 20.6984 18.1662H13.6255C13.5005 18.1662 13.3859 18.1766 13.2714 18.187C13.0526 18.1974 12.8443 18.1245 12.6776 17.9787C12.511 17.8329 12.4276 17.6245 12.4276 17.4058V14.5203C12.4276 11.4578 14.5734 9.31201 17.6359 9.31201H26.4901C29.5526 9.31201 31.6984 11.4578 31.6984 14.5203V19.8328C31.6984 21.3432 31.188 22.6766 30.2505 23.5932C29.5005 24.3536 28.4589 24.8433 27.2714 24.9891V26.1453C27.2714 26.7703 26.9276 27.3329 26.3859 27.6245C26.1359 27.7391 25.8651 27.8016 25.6047 27.8016ZM24.9797 25.8433L25.6568 26.2287C25.7193 26.1974 25.7193 26.1453 25.7193 26.1349V24.2495C25.7193 23.8224 26.0734 23.4682 26.5005 23.4682C27.5943 23.4682 28.5214 23.1245 29.1568 22.4787C29.813 21.8329 30.1464 20.9161 30.1464 19.8224V14.5099C30.1464 12.2912 28.7193 10.8641 26.5005 10.8641H17.6464C15.4276 10.8641 14.0005 12.2912 14.0005 14.5099V16.5933H20.7089C23.2505 16.5933 25.0318 18.3745 25.0318 20.9162V25.1557C25.0214 25.3953 25.011 25.6245 24.9797 25.8433Z" fill="white"/>
<path d="M14.3235 31.6974C14.0943 31.6974 13.8547 31.6454 13.6359 31.5308C13.1464 31.2704 12.8443 30.7704 12.8443 30.2079V29.4162C11.9276 29.2703 11.1151 28.8849 10.5109 28.2807C9.71928 27.4891 9.30261 26.4057 9.30261 25.1557V20.9162C9.30261 18.562 10.8443 16.8329 13.1359 16.6141C13.3026 16.6037 13.4589 16.5933 13.6255 16.5933H20.6984C23.2401 16.5933 25.0214 18.3745 25.0214 20.9162V25.1557C25.0214 25.6141 24.9693 26.0412 24.8547 26.4266C24.3859 28.3016 22.7922 29.4787 20.6984 29.4787H18.1047L15.1568 31.437C14.9068 31.6141 14.6151 31.6974 14.3235 31.6974ZM13.6255 18.1558C13.5005 18.1558 13.3859 18.1662 13.2714 18.1766C11.7714 18.312 10.8651 19.3433 10.8651 20.9162V25.1557C10.8651 25.9891 11.1255 26.687 11.6151 27.1766C12.0943 27.6557 12.7922 27.9162 13.6255 27.9162C14.0526 27.9162 14.4068 28.2703 14.4068 28.6974V30.062L17.4276 28.0516C17.5526 27.9683 17.7089 27.9162 17.8651 27.9162H20.6984C22.0734 27.9162 23.0422 27.2287 23.3443 26.0203C23.4172 25.7599 23.4589 25.4682 23.4589 25.1557V20.9162C23.4589 19.2183 22.3964 18.1558 20.6984 18.1558H13.6255Z" fill="white"/>
</svg>
