<svg width="43" height="42" viewBox="0 0 43 42" fill="none" xmlns="http://www.w3.org/2000/svg">
<rect x="0.600952" y="0.399902" width="41.6" height="41.6" rx="20.8" fill="white" fill-opacity="0.05"/>
<path d="M27.5307 29.6976H15.4682C12.614 29.6976 10.3015 27.3746 10.3015 24.5205V16.8017C10.3015 15.3851 11.1765 13.6038 12.3015 12.7288L17.9161 8.35381C19.6036 7.04131 22.3015 6.97881 24.0515 8.20798L30.489 12.7184C31.7286 13.583 32.6973 15.4371 32.6973 16.9476V24.5309C32.6973 27.3746 30.3848 29.6976 27.5307 29.6976ZM18.8744 9.58298L13.2598 13.958C12.5202 14.5413 11.864 15.8642 11.864 16.8017V24.5205C11.864 26.5101 13.4786 28.1351 15.4682 28.1351H27.5307C29.5202 28.1351 31.1348 26.5205 31.1348 24.5309V16.9476C31.1348 15.9476 30.4161 14.5621 29.5932 13.9996L23.1557 9.48923C21.9682 8.6559 20.0098 8.69756 18.8744 9.58298Z" fill="white"/>
<path d="M21.4994 25.5308C21.0723 25.5308 20.7181 25.1766 20.7181 24.7495V21.6245C20.7181 21.1974 21.0723 20.8433 21.4994 20.8433C21.9265 20.8433 22.2806 21.1974 22.2806 21.6245V24.7495C22.2806 25.1766 21.9265 25.5308 21.4994 25.5308Z" fill="white"/>
<ellipse cx="21.4994" cy="34.9995" rx="2.5" ry="2" fill="white"/>
</svg>
