<svg width="129" height="25" viewBox="0 0 129 25" fill="none" xmlns="http://www.w3.org/2000/svg">
<path d="M11.7823 19.2299C13.6961 19.2299 15.2477 17.7148 15.2477 15.8458C15.2477 13.9769 13.6961 12.4618 11.7823 12.4618C9.8684 12.4618 8.31689 13.9769 8.31689 15.8458C8.31689 17.7148 9.8684 19.2299 11.7823 19.2299Z" fill="#EDFF81"/>
<path d="M12.822 10.4314C14.1617 10.4314 15.2478 9.37083 15.2478 8.06256C15.2478 6.75429 14.1617 5.69373 12.822 5.69373C11.4823 5.69373 10.3962 6.75429 10.3962 8.06256C10.3962 9.37083 11.4823 10.4314 12.822 10.4314Z" fill="white"/>
<path d="M3.83275 19.2096C5.17246 19.2096 6.25851 18.149 6.25851 16.8408C6.25851 15.5325 5.17246 14.4719 3.83275 14.4719C2.49303 14.4719 1.40698 15.5325 1.40698 16.8408C1.40698 18.149 2.49303 19.2096 3.83275 19.2096Z" fill="white"/>
<path d="M4.85161 12.4618C6.76548 12.4618 8.31699 10.9467 8.31699 9.07778C8.31699 7.20882 6.76548 5.69373 4.85161 5.69373C2.93773 5.69373 1.38623 7.20882 1.38623 9.07778C1.38623 10.9467 2.93773 12.4618 4.85161 12.4618Z" fill="#EDFF81"/>
<path d="M28.1293 17.2518H25.1645L20.3948 7.82217H23.2361L26.6675 14.9184L30.0921 7.82217H32.9334L28.1293 17.2518ZM34.2714 13.6694V11.4183H39.899V13.6694H34.2714ZM53.2334 11.0409C53.2334 11.5121 53.1647 11.9468 53.0275 12.3448C52.8902 12.7383 52.6683 13.0792 52.3618 13.3674C52.0598 13.6511 51.6663 13.873 51.1813 14.0331C50.6964 14.1933 50.1061 14.2733 49.4107 14.2733H45.1831V17.2518H42.637V7.82217H49.4107C50.1061 7.82217 50.6964 7.90224 51.1813 8.06237C51.6663 8.21793 52.0598 8.43983 52.3618 8.72808C52.6683 9.01174 52.8902 9.35032 53.0275 9.74379C53.1647 10.1373 53.2334 10.5696 53.2334 11.0409ZM50.6598 11.0821C50.6598 10.8624 50.6277 10.6749 50.5637 10.5193C50.5042 10.3592 50.4035 10.2288 50.2617 10.1281C50.1199 10.0275 49.9346 9.95425 49.7058 9.9085C49.477 9.85817 49.1957 9.83301 48.8617 9.83301H45.1831V12.2625H48.8617C49.1957 12.2625 49.477 12.2442 49.7058 12.2076C49.9346 12.1664 50.1199 12.1001 50.2617 12.0086C50.4035 11.9125 50.5042 11.7889 50.5637 11.638C50.6277 11.487 50.6598 11.3017 50.6598 11.0821ZM58.1744 17.2518H55.6282V7.82217H62.0108C62.6971 7.82217 63.2781 7.89309 63.7539 8.03492C64.2343 8.17676 64.6232 8.37807 64.9206 8.63886C65.2226 8.89965 65.4399 9.21534 65.5726 9.58594C65.7099 9.95197 65.7785 10.3615 65.7785 10.8144C65.7785 11.2125 65.7213 11.5602 65.6069 11.8576C65.4971 12.155 65.3461 12.4112 65.154 12.6262C64.9664 12.8367 64.7468 13.0151 64.4951 13.1615C64.2435 13.3079 63.9781 13.4292 63.699 13.5253L66.7874 17.2518H63.8088L60.9539 13.7792H58.1744V17.2518ZM63.2049 10.8007C63.2049 10.6177 63.1797 10.4621 63.1294 10.334C63.0837 10.2059 63.0013 10.1029 62.8824 10.0252C62.7634 9.94282 62.6033 9.88334 62.4019 9.84673C62.2052 9.81013 61.9581 9.79183 61.6608 9.79183H58.1744V11.8095H61.6608C61.9581 11.8095 62.2052 11.7912 62.4019 11.7546C62.6033 11.718 62.7634 11.6608 62.8824 11.5831C63.0013 11.5007 63.0837 11.3955 63.1294 11.2674C63.1797 11.1393 63.2049 10.9837 63.2049 10.8007ZM81.0277 12.5439C81.0277 13.3537 80.879 14.0697 80.5816 14.692C80.2842 15.3096 79.8587 15.8266 79.3051 16.243C78.7514 16.6593 78.0789 16.975 77.2874 17.1901C76.5004 17.4005 75.6151 17.5058 74.6314 17.5058C73.6477 17.5058 72.7578 17.4005 71.9617 17.1901C71.1702 16.975 70.4953 16.6593 69.9372 16.243C69.379 15.8266 68.9489 15.3096 68.6469 14.692C68.345 14.0697 68.194 13.3537 68.194 12.5439C68.194 11.734 68.345 11.0203 68.6469 10.4026C68.9489 9.78039 69.379 9.2611 69.9372 8.84475C70.4953 8.4284 71.1702 8.11499 71.9617 7.90453C72.7578 7.68949 73.6477 7.58197 74.6314 7.58197C75.6151 7.58197 76.5004 7.68949 77.2874 7.90453C78.0789 8.11499 78.7514 8.4284 79.3051 8.84475C79.8587 9.2611 80.2842 9.78039 80.5816 10.4026C80.879 11.0203 81.0277 11.734 81.0277 12.5439ZM78.4541 12.5439C78.4541 12.1916 78.3969 11.8416 78.2825 11.4938C78.1727 11.1415 77.9737 10.8258 77.6854 10.5468C77.4017 10.2677 77.0128 10.0412 76.5187 9.86732C76.0246 9.69346 75.3955 9.60653 74.6314 9.60653C74.119 9.60653 73.6683 9.64771 73.2794 9.73006C72.8905 9.80784 72.5542 9.91765 72.2706 10.0595C71.9869 10.2013 71.749 10.3683 71.5568 10.5605C71.3647 10.7481 71.2114 10.9517 71.097 11.1713C70.9826 11.3863 70.9003 11.6128 70.8499 11.8507C70.8042 12.084 70.7813 12.3151 70.7813 12.5439C70.7813 12.7772 70.8042 13.0128 70.8499 13.2507C70.9003 13.4887 70.9826 13.7174 71.097 13.937C71.2114 14.1521 71.3647 14.3534 71.5568 14.541C71.749 14.7286 71.9869 14.8933 72.2706 15.0351C72.5542 15.1724 72.8905 15.2822 73.2794 15.3645C73.6683 15.4423 74.119 15.4812 74.6314 15.4812C75.3955 15.4812 76.0246 15.3943 76.5187 15.2204C77.0128 15.0465 77.4017 14.8201 77.6854 14.541C77.9737 14.2619 78.1727 13.9485 78.2825 13.6008C78.3969 13.2485 78.4541 12.8962 78.4541 12.5439ZM90.457 13.7655C90.457 14.3923 90.3541 14.9322 90.1482 15.3851C89.9469 15.8381 89.6495 16.211 89.256 16.5038C88.8671 16.7966 88.389 17.0139 87.8217 17.1558C87.2543 17.293 86.6069 17.3616 85.8795 17.3616C85.5363 17.3616 85.184 17.3433 84.8226 17.3067C84.4611 17.2747 84.1134 17.2335 83.7794 17.1832C83.4454 17.1329 83.1366 17.0803 82.8529 17.0254C82.5738 16.9659 82.3405 16.911 82.1529 16.8606V14.6508C82.3451 14.7286 82.5555 14.8086 82.7843 14.891C83.0131 14.9688 83.267 15.0397 83.5461 15.1037C83.8297 15.1678 84.1409 15.2204 84.4794 15.2616C84.8226 15.3028 85.2 15.3233 85.6118 15.3233C86.0556 15.3233 86.4239 15.2753 86.7167 15.1792C87.0141 15.0786 87.2521 14.9413 87.4305 14.7675C87.6089 14.589 87.7347 14.3808 87.8079 14.1429C87.8812 13.905 87.9178 13.6442 87.9178 13.3606V7.82217H90.457V13.7655ZM93.6274 17.2518V7.82217H103.174V9.83301H96.2422V11.3909H102.817V13.4017H96.2422V15.241H103.27V17.2518H93.6274ZM116.405 16.6067C116.076 16.744 115.744 16.8675 115.41 16.9773C115.076 17.0871 114.731 17.1809 114.374 17.2587C114.017 17.341 113.639 17.4028 113.241 17.444C112.848 17.4852 112.425 17.5058 111.972 17.5058C111.011 17.5058 110.126 17.4028 109.316 17.1969C108.511 16.991 107.815 16.6822 107.229 16.2704C106.648 15.8541 106.195 15.3371 105.871 14.7194C105.546 14.0972 105.383 13.372 105.383 12.5439C105.383 11.7157 105.546 10.9928 105.871 10.3752C106.195 9.75294 106.648 9.23593 107.229 8.82416C107.815 8.40781 108.511 8.09669 109.316 7.8908C110.126 7.68491 111.011 7.58197 111.972 7.58197C112.425 7.58197 112.848 7.60256 113.241 7.64373C113.639 7.68491 114.017 7.74668 114.374 7.82903C114.731 7.90681 115.076 8.00061 115.41 8.11041C115.744 8.22022 116.076 8.34375 116.405 8.48101V10.7732C116.144 10.6314 115.87 10.4918 115.582 10.3546C115.293 10.2128 114.975 10.0869 114.628 9.97713C114.28 9.86275 113.898 9.77124 113.482 9.70261C113.065 9.62941 112.596 9.59281 112.075 9.59281C111.274 9.59281 110.608 9.67516 110.078 9.83987C109.551 10.0046 109.131 10.2242 108.815 10.4987C108.499 10.7732 108.277 11.0889 108.149 11.4458C108.021 11.7981 107.957 12.1641 107.957 12.5439C107.957 12.7955 107.984 13.0449 108.039 13.2919C108.094 13.5344 108.186 13.7655 108.314 13.9851C108.442 14.2001 108.609 14.3991 108.815 14.5822C109.021 14.7652 109.277 14.923 109.583 15.0557C109.89 15.1884 110.247 15.2936 110.654 15.3714C111.066 15.4446 111.539 15.4812 112.075 15.4812C112.596 15.4812 113.065 15.4492 113.482 15.3851C113.898 15.3165 114.28 15.2273 114.628 15.1175C114.975 15.0077 115.293 14.8841 115.582 14.7469C115.87 14.605 116.144 14.4609 116.405 14.3145V16.6067ZM124.345 9.87419V17.2518H121.799V9.87419H117.798V7.82217H128.353V9.87419H124.345Z" fill="white"/>
</svg>
