<svg width="63" height="63" viewBox="0 0 63 63" fill="none" xmlns="http://www.w3.org/2000/svg">
<rect x="0.77832" width="62.2222" height="62.2222" rx="13.8272" fill="#191919"/>
<path d="M41.6317 48.5037C46.6679 48.5037 50.7505 44.5169 50.7505 39.5989C50.7505 34.6809 46.6679 30.6941 41.6317 30.6941C36.5956 30.6941 32.5129 34.6809 32.5129 39.5989C32.5129 44.5169 36.5956 48.5037 41.6317 48.5037Z" fill="#EDFF81"/>
<path d="M44.3673 25.3512C47.8926 25.3512 50.7504 22.5605 50.7504 19.1179C50.7504 15.6753 47.8926 12.8845 44.3673 12.8845C40.842 12.8845 37.9841 15.6753 37.9841 19.1179C37.9841 22.5605 40.842 25.3512 44.3673 25.3512Z" fill="white"/>
<path d="M20.7132 48.4501C24.2385 48.4501 27.0964 45.6593 27.0964 42.2167C27.0964 38.7742 24.2385 35.9834 20.7132 35.9834C17.1879 35.9834 14.3301 38.7742 14.3301 42.2167C14.3301 45.6593 17.1879 48.4501 20.7132 48.4501Z" fill="white"/>
<path d="M23.3942 30.6941C28.4303 30.6941 32.513 26.7073 32.513 21.7893C32.513 16.8713 28.4303 12.8845 23.3942 12.8845C18.358 12.8845 14.2754 16.8713 14.2754 21.7893C14.2754 26.7073 18.358 30.6941 23.3942 30.6941Z" fill="#EDFF81"/>
</svg>
