<svg width="314" height="61" viewBox="0 0 314 61" fill="none" xmlns="http://www.w3.org/2000/svg">
<path d="M28.6177 46.7074C33.2663 46.7074 37.0348 43.0274 37.0348 38.4879C37.0348 33.9484 33.2663 30.2684 28.6177 30.2684C23.9691 30.2684 20.2007 33.9484 20.2007 38.4879C20.2007 43.0274 23.9691 46.7074 28.6177 46.7074Z" fill="#EDFF81"/>
<path d="M31.1429 25.3368C34.3969 25.3368 37.0348 22.7608 37.0348 19.5831C37.0348 16.4055 34.3969 13.8295 31.1429 13.8295C27.8889 13.8295 25.251 16.4055 25.251 19.5831C25.251 22.7608 27.8889 25.3368 31.1429 25.3368Z" fill="#191919"/>
<path d="M9.30892 46.6582C12.5629 46.6582 15.2008 44.0822 15.2008 40.9045C15.2008 37.7269 12.5629 35.1509 9.30892 35.1509C6.0549 35.1509 3.41699 37.7269 3.41699 40.9045C3.41699 44.0822 6.0549 46.6582 9.30892 46.6582Z" fill="#191919"/>
<path d="M11.7837 30.2685C16.4323 30.2685 20.2008 26.5885 20.2008 22.049C20.2008 17.5095 16.4323 13.8295 11.7837 13.8295C7.13514 13.8295 3.3667 17.5095 3.3667 22.049C3.3667 26.5885 7.13514 30.2685 11.7837 30.2685Z" fill="#EDFF81"/>
<path d="M68.3231 42.1852H61.122L49.5368 19.2815H56.4379L64.7726 36.5176L73.0906 19.2815H79.9917L68.3231 42.1852ZM83.2415 33.4838V28.0163H96.9104V33.4838H83.2415ZM129.298 27.0994C129.298 28.2441 129.131 29.2998 128.798 30.2666C128.465 31.2223 127.926 32.0502 127.181 32.7503C126.448 33.4393 125.492 33.9783 124.314 34.3673C123.136 34.7562 121.703 34.9507 120.013 34.9507H109.745V42.1852H103.561V19.2815H120.013C121.703 19.2815 123.136 19.476 124.314 19.865C125.492 20.2428 126.448 20.7818 127.181 21.4819C127.926 22.1709 128.465 22.9932 128.798 23.9489C129.131 24.9046 129.298 25.9548 129.298 27.0994ZM123.047 27.1995C123.047 26.666 122.969 26.2104 122.814 25.8326C122.669 25.4436 122.425 25.1269 122.08 24.8824C121.736 24.6379 121.286 24.4601 120.73 24.349C120.175 24.2268 119.491 24.1656 118.68 24.1656H109.745V30.0666H118.68C119.491 30.0666 120.175 30.0221 120.73 29.9332C121.286 29.8332 121.736 29.6721 122.08 29.4498C122.425 29.2164 122.669 28.9164 122.814 28.5497C122.969 28.1829 123.047 27.7329 123.047 27.1995ZM141.299 42.1852H135.115V19.2815H150.618C152.285 19.2815 153.696 19.4538 154.852 19.7983C156.018 20.1428 156.963 20.6317 157.685 21.2652C158.419 21.8986 158.947 22.6654 159.269 23.5655C159.602 24.4546 159.769 25.4492 159.769 26.5494C159.769 27.5162 159.63 28.3608 159.352 29.0831C159.086 29.8054 158.719 30.4278 158.252 30.9501C157.797 31.4612 157.263 31.8947 156.652 32.2503C156.041 32.6059 155.396 32.9004 154.718 33.1337L162.219 42.1852H154.985L148.051 33.7505H141.299V42.1852ZM153.518 26.516C153.518 26.0715 153.457 25.6937 153.335 25.3825C153.224 25.0713 153.024 24.8213 152.735 24.6324C152.446 24.4324 152.057 24.2879 151.568 24.199C151.09 24.1101 150.49 24.0656 149.767 24.0656H141.299V28.9664H149.767C150.49 28.9664 151.09 28.922 151.568 28.8331C152.057 28.7441 152.446 28.6052 152.735 28.4163C153.024 28.2163 153.224 27.9607 153.335 27.6495C153.457 27.3384 153.518 26.9605 153.518 26.516ZM196.808 30.75C196.808 32.717 196.446 34.4562 195.724 35.9675C195.002 37.4678 193.968 38.7235 192.624 39.7348C191.279 40.7461 189.645 41.5129 187.723 42.0352C185.811 42.5463 183.661 42.8019 181.272 42.8019C178.883 42.8019 176.721 42.5463 174.787 42.0352C172.865 41.5129 171.226 40.7461 169.87 39.7348C168.514 38.7235 167.47 37.4678 166.736 35.9675C166.003 34.4562 165.636 32.717 165.636 30.75C165.636 28.783 166.003 27.0494 166.736 25.5492C167.47 24.0378 168.514 22.7765 169.87 21.7653C171.226 20.754 172.865 19.9928 174.787 19.4816C176.721 18.9593 178.883 18.6981 181.272 18.6981C183.661 18.6981 185.811 18.9593 187.723 19.4816C189.645 19.9928 191.279 20.754 192.624 21.7653C193.968 22.7765 195.002 24.0378 195.724 25.5492C196.446 27.0494 196.808 28.783 196.808 30.75ZM190.557 30.75C190.557 29.8943 190.418 29.0442 190.14 28.1996C189.873 27.3439 189.39 26.5771 188.69 25.8993C188.001 25.2214 187.056 24.6713 185.856 24.249C184.656 23.8267 183.128 23.6156 181.272 23.6156C180.027 23.6156 178.933 23.7156 177.988 23.9156C177.043 24.1045 176.227 24.3712 175.538 24.7157C174.849 25.0602 174.271 25.4658 173.804 25.9326C173.337 26.3882 172.965 26.8827 172.687 27.4162C172.409 27.9385 172.209 28.4886 172.087 29.0664C171.976 29.6332 171.92 30.1944 171.92 30.75C171.92 31.3168 171.976 31.8891 172.087 32.467C172.209 33.0448 172.409 33.6005 172.687 34.1339C172.965 34.6562 173.337 35.1452 173.804 35.6008C174.271 36.0564 174.849 36.4565 175.538 36.801C176.227 37.1344 177.043 37.4011 177.988 37.6011C178.933 37.79 180.027 37.8845 181.272 37.8845C183.128 37.8845 184.656 37.6734 185.856 37.2511C187.056 36.8288 188.001 36.2787 188.69 35.6008C189.39 34.9229 189.873 34.1617 190.14 33.3171C190.418 32.4614 190.557 31.6057 190.557 30.75ZM219.711 33.7172C219.711 35.2396 219.461 36.5509 218.96 37.6511C218.472 38.7513 217.749 39.657 216.793 40.3682C215.849 41.0794 214.688 41.6073 213.31 41.9518C211.932 42.2852 210.359 42.4519 208.592 42.4519C207.759 42.4519 206.903 42.4074 206.025 42.3185C205.147 42.2407 204.303 42.1407 203.491 42.0185C202.68 41.8962 201.93 41.7684 201.241 41.6351C200.563 41.4906 199.996 41.3573 199.541 41.235V35.8675C200.007 36.0564 200.519 36.2509 201.074 36.4509C201.63 36.6399 202.247 36.8121 202.925 36.9677C203.614 37.1233 204.369 37.2511 205.192 37.3511C206.025 37.4511 206.942 37.5011 207.942 37.5011C209.02 37.5011 209.915 37.3844 210.626 37.151C211.348 36.9066 211.926 36.5732 212.359 36.1509C212.793 35.7175 213.098 35.2118 213.276 34.634C213.454 34.0561 213.543 33.4227 213.543 32.7337V19.2815H219.711V33.7172ZM227.411 42.1852V19.2815H250.598V24.1656H233.762V27.9496H249.731V32.8337H233.762V37.3011H250.832V42.1852H227.411ZM282.736 40.6183C281.936 40.9517 281.13 41.2517 280.319 41.5184C279.508 41.7851 278.669 42.0129 277.802 42.2018C276.935 42.4019 276.018 42.5519 275.051 42.6519C274.096 42.7519 273.068 42.8019 271.968 42.8019C269.634 42.8019 267.484 42.5519 265.517 42.0518C263.561 41.5517 261.872 40.8016 260.449 39.8015C259.038 38.7902 257.938 37.5344 257.149 36.0342C256.36 34.5228 255.965 32.7615 255.965 30.75C255.965 28.7386 256.36 26.9828 257.149 25.4825C257.938 23.9712 259.038 22.7154 260.449 21.7153C261.872 20.704 263.561 19.9483 265.517 19.4482C267.484 18.9481 269.634 18.6981 271.968 18.6981C273.068 18.6981 274.096 18.7481 275.051 18.8481C276.018 18.9481 276.935 19.0982 277.802 19.2982C278.669 19.4871 279.508 19.7149 280.319 19.9816C281.13 20.2484 281.936 20.5484 282.736 20.8818V26.4493C282.103 26.1048 281.436 25.7659 280.736 25.4325C280.036 25.088 279.263 24.7824 278.419 24.5157C277.574 24.2379 276.646 24.0156 275.635 23.8489C274.624 23.6711 273.485 23.5822 272.218 23.5822C270.273 23.5822 268.656 23.7822 267.367 24.1823C266.089 24.5824 265.066 25.1158 264.3 25.7826C263.533 26.4493 262.994 27.2161 262.683 28.0829C262.372 28.9386 262.216 29.8277 262.216 30.75C262.216 31.3612 262.283 31.9669 262.416 32.567C262.549 33.156 262.772 33.7172 263.083 34.2506C263.394 34.7729 263.8 35.2563 264.3 35.7008C264.8 36.1453 265.422 36.5287 266.167 36.851C266.911 37.1733 267.778 37.4289 268.767 37.6178C269.767 37.7956 270.917 37.8845 272.218 37.8845C273.485 37.8845 274.624 37.8067 275.635 37.6511C276.646 37.4844 277.574 37.2677 278.419 37.001C279.263 36.7343 280.036 36.4343 280.736 36.1009C281.436 35.7564 282.103 35.4063 282.736 35.0507V40.6183ZM302.022 24.2657V42.1852H295.837V24.2657H286.119V19.2815H311.757V24.2657H302.022Z" fill="#191919"/>
</svg>
