<svg width="35" height="34" viewBox="0 0 35 34" fill="none" xmlns="http://www.w3.org/2000/svg">
<path d="M25.6182 33.7076C30.2668 33.7076 34.0353 30.0276 34.0353 25.4881C34.0353 20.9486 30.2668 17.2686 25.6182 17.2686C20.9696 17.2686 17.2012 20.9486 17.2012 25.4881C17.2012 30.0276 20.9696 33.7076 25.6182 33.7076Z" fill="#EDFF81"/>
<path d="M28.1439 12.3364C31.3979 12.3364 34.0358 9.76041 34.0358 6.58275C34.0358 3.4051 31.3979 0.829102 28.1439 0.829102C24.8899 0.829102 22.252 3.4051 22.252 6.58275C22.252 9.76041 24.8899 12.3364 28.1439 12.3364Z" fill="white"/>
<path d="M6.3099 33.6577C9.56392 33.6577 12.2018 31.0817 12.2018 27.904C12.2018 24.7264 9.56392 22.1504 6.3099 22.1504C3.05587 22.1504 0.417969 24.7264 0.417969 27.904C0.417969 31.0817 3.05587 33.6577 6.3099 33.6577Z" fill="white"/>
<path d="M8.78423 17.2681C13.4328 17.2681 17.2013 13.5881 17.2013 9.0486C17.2013 4.5091 13.4328 0.829102 8.78423 0.829102C4.13562 0.829102 0.367188 4.5091 0.367188 9.0486C0.367188 13.5881 4.13562 17.2681 8.78423 17.2681Z" fill="#EDFF81"/>
</svg>
