<svg width="29" height="21" viewBox="0 0 29 21" fill="none" xmlns="http://www.w3.org/2000/svg">
<path d="M13.2456 19.412C11.9337 20.6377 9.80683 20.6377 8.49499 19.412L1.01635 12.7247C-0.295487 11.499 -0.295488 9.51175 1.01634 8.28606C2.32818 7.06037 4.45508 7.06037 5.76691 8.28606L13.2456 14.9734C14.5574 16.1991 14.5574 18.1864 13.2456 19.412Z" fill="#E6EFF6"/>
<path d="M8.49499 19.412C7.18316 18.1864 7.18317 16.1993 8.495 14.9737L23.2595 1.65901C24.5713 0.433324 26.6982 0.433323 28.01 1.65901C29.3219 2.8847 29.3219 4.87194 28.01 6.09763L13.2456 19.412C11.9337 20.6377 9.80683 20.6377 8.49499 19.412Z" fill="#E6EFF6"/>
</svg>
