<svg width="30" height="21" viewBox="0 0 30 21" fill="none" xmlns="http://www.w3.org/2000/svg">
<path d="M13.842 19.412C12.5302 20.6377 10.4033 20.6377 9.09143 19.412L1.61278 12.7247C0.300948 11.499 0.300948 9.51175 1.61278 8.28606C2.92461 7.06037 5.05151 7.06037 6.36335 8.28606L13.842 14.9734C15.1538 16.1991 15.1538 18.1864 13.842 19.412Z" fill="#333333"/>
<path d="M9.09143 19.412C7.7796 18.1864 7.7796 16.1993 9.09143 14.9737L23.8559 1.65901C25.1677 0.433324 27.2946 0.433323 28.6065 1.65901C29.9183 2.8847 29.9183 4.87194 28.6065 6.09763L13.842 19.412C12.5302 20.6377 10.4033 20.6377 9.09143 19.412Z" fill="#333333"/>
</svg>
