<?xml version="1.0" encoding="utf-8"?><svg xmlns="http://www.w3.org/2000/svg" xmlns:xlink="http://www.w3.org/1999/xlink"><symbol viewBox="0 0 15 9" id="arrow_d" xmlns="http://www.w3.org/2000/svg"><path data-name="arrow copy 4" d="M13.644.007l1.363 1.383-7.5 7.607-1.364-1.383zm-12.27 0l7.5 7.607L7.509 9l-7.5-7.607z"/></symbol><symbol viewBox="0 0 9 15.5" id="arrow_r" xmlns="http://www.w3.org/2000/svg"><path data-name="arrow copy" d="M.007 1.401L1.39-.007 8.997 7.74 7.614 9.149zm0 12.679l7.607-7.748L8.997 7.74 1.39 15.488z"/></symbol><symbol viewBox="0 0 29.72 28" id="bubbls" xmlns="http://www.w3.org/2000/svg"><path d="M.616 21.294a1.079 1.079 0 00.453.1 1.064 1.064 0 00.684-.249l6.118-5.114H18.12a4.29 4.29 0 004.28-4.29V4.29A4.29 4.29 0 0018.12 0H4.277A4.288 4.288 0 000 4.29v16.033a1.071 1.071 0 00.616.971zm1.522-17a2.144 2.144 0 012.139-2.145H18.12a2.146 2.146 0 012.14 2.145v7.452a2.146 2.146 0 01-2.14 2.145H7.484a1.065 1.065 0 00-.684.249l-4.662 3.9V4.29zm22.4 3.387a1.073 1.073 0 000 2.145c1.18 0 3.03.963 3.03 2.145v12.723l-4.51-2.9a1.042 1.042 0 00-.66-.234h-9.57c-1.18 0-2.138-.06-2.138-1.242V19.25a1.07 1.07 0 10-2.139 0v1.072c0 2.366 1.919 3.387 4.277 3.387h9.19l5.95 4.056a1.087 1.087 0 001.14.129 1.071 1.071 0 00.6-.967V11.968C29.71 9.6 26.89 7.677 24.54 7.677z"/></symbol><symbol viewBox="0 0 34.03 26" id="check" xmlns="http://www.w3.org/2000/svg"><path data-name="Rectangle 8 copy 4" d="M11.95 26l-4.91-4.727L29.13.007l4.9 4.726zm-.89-.811L.01 14.556 4.92 9.83l11.04 10.632z"/></symbol><symbol viewBox="0 0 16.44 16.437" id="close" xmlns="http://www.w3.org/2000/svg"><path data-name="Shape 3 copy" d="M15.01.011l1.42 1.414-15 15-1.42-1.414zm-.4 16.415l1.38-1.377L1.39.449.01 1.826z"/></symbol><symbol viewBox="0 0 22.69 25.25" id="man" xmlns="http://www.w3.org/2000/svg"><path data-name="Shape 1 copy" d="M11.42 24.255H1c0-7.519 6.6-7.517 8.06-9.483l.17-.9a7.181 7.181 0 01-3.51-6.5c0-3.876 2.52-6.36 5.63-6.36s5.63 2.485 5.63 6.36a7.214 7.214 0 01-3.46 6.476l.19 1.019c1.61 1.871 7.99 1.993 7.99 9.385H11.42z"/></symbol><symbol viewBox="0 0 30 30" id="move" xmlns="http://www.w3.org/2000/svg"><path data-name="Rectangle 1 copy 3" d="M23.5 10.443l1-1.006 5.5 5.534-1 1.006zm0 9.056l5.5-5.534 1 1.006-5.5 5.534zm-17-9.18l-1-1.039L0 14.993l1 1.039zm0 9.348L1 13.954l-1 1.039 5.5 5.713zm-4.314-5.386h26.719v1.438H2.187v-1.438zm17.606 9.218l1.018 1-5.6 5.5-1.018-1zm-9.166 0l5.6 5.5-1.018 1-5.6-5.5zm9.291-17l1.051-1-5.781-5.5-1.052 1zm-9.461 0l5.782-5.5-1.051-1-5.782 5.5zm4.012-4.314h1.437v26.719h-1.437V2.187z"/></symbol><symbol viewBox="0 0 30 30" id="hamb" xmlns="http://www.w3.org/2000/svg"><path d="M1.49997,17.99994h13.00003c0.82832,0 1.49998,0.67157 1.49998,1.50003c0,0.82834 -0.67165,1.49991 -1.49998,1.49991h-13.00003c-0.82844,0 -1.49998,-0.67157 -1.49998,-1.49991c0,-0.82846 0.67154,-1.50003 1.49998,-1.50003z"></path><path d="M1.49997,-0.00009h22.99999c0.82844,0 1.49998,0.67157 1.49998,1.50003c0,0.82846 -0.67154,1.50003 -1.49998,1.50003h-22.99999c-0.82844,0 -1.49998,-0.67157 -1.49998,-1.50003c0,-0.82846 0.67154,-1.50003 1.49998,-1.50003z"></path><path d="M1.49997,8.99999h22.99999c0.82844,0 1.49998,0.67157 1.49998,1.49991c0,0.82846 -0.67154,1.50003 -1.49998,1.50003h-22.99999c-0.82844,0 -1.49998,-0.67157 -1.49998,-1.50003c0,-0.82834 0.67154,-1.49991 1.49998,-1.49991z" ></path></symbol><symbol viewBox="0 0 383.947 383.947" id="edit" xmlns="http://www.w3.org/2000/svg"><polygon points="0,303.947 0,383.947 80,383.947 316.053,147.893 236.053,67.893 			"/><path d="M377.707,56.053L327.893,6.24c-8.32-8.32-21.867-8.32-30.187,0l-39.04,39.04l80,80l39.04-39.04C386.027,77.92,386.027,64.373,377.707,56.053z"/></symbol><symbol viewBox="0 0 37.434 37.434" id="photo" xmlns="http://www.w3.org/2000/svg"><path d="M32.932,8.578H27.52V8.022c0-2.484-2.016-4.5-4.5-4.5h-8.607c-2.485,0-4.5,2.016-4.5,4.5v0.556H4.5
		c-2.485,0-4.5,2.015-4.5,4.5v16.334c0,2.484,2.015,4.5,4.5,4.5h28.434c2.485,0,4.5-2.016,4.5-4.5V13.078
		C37.432,10.592,35.417,8.578,32.932,8.578z M18.715,29.244c-4.688,0-8.5-3.812-8.5-8.5c0-4.687,3.812-8.5,8.5-8.5
		c4.688,0,8.5,3.812,8.5,8.5C27.215,25.432,23.402,29.244,18.715,29.244z M23.215,20.744c0,2.479-2.02,4.5-4.5,4.5
		c-2.48,0-4.5-2.021-4.5-4.5c0-2.48,2.02-4.5,4.5-4.5C21.195,16.244,23.215,18.264,23.215,20.744z"/>
</symbol><symbol viewBox="0 0 329.26933 329" id="delete" xmlns="http://www.w3.org/2000/svg"><path d="m194.800781 164.769531 128.210938-128.214843c8.34375-8.339844 8.34375-21.824219 0-30.164063-8.339844-8.339844-21.824219-8.339844-30.164063 0l-128.214844 128.214844-128.210937-128.214844c-8.34375-8.339844-21.824219-8.339844-30.164063 0-8.34375 8.339844-8.34375 21.824219 0 30.164063l128.210938 128.214843-128.210938 128.214844c-8.34375 8.339844-8.34375 21.824219 0 30.164063 4.15625 4.160156 9.621094 6.25 15.082032 6.25 5.460937 0 10.921875-2.089844 15.082031-6.25l128.210937-128.214844 128.214844 128.214844c4.160156 4.160156 9.621094 6.25 15.082032 6.25 5.460937 0 10.921874-2.089844 15.082031-6.25 8.34375-8.339844 8.34375-21.824219 0-30.164063zm0 0"/></symbol><symbol viewBox="0 0 23 31" id="notification" xmlns="http://www.w3.org/2000/svg"><path d="M12.99995,2.99996h-1.99997c-0.42515,0 -0.83096,0.06913 -1.22509,0.16901v-0.44402c0,-0.9527 0.77236,-2.72506 1.72508,-2.72506c0.95272,0 1.72497,1.77236 1.72497,2.72506v0.29771c-0.07622,-0.00344 -0.14797,-0.0227 -0.22499,-0.0227z"/><path d="M15.53115,27.17181c0,2.11421 -1.80485,3.82815 -4.03118,3.82815c-2.22645,0 -4.0313,-1.71394 -4.0313,-3.82815c0,-0.05758 0.00134,-0.11486 0.00399,-0.17182l8.0545,0c0.00265,0.05696 0.00399,0.11424 0.00399,0.17182z"/><path d="M22.28557,21.60115c-1.73859,-1.43753 -2.73571,-3.5372 -2.73571,-5.76289v-3.13553c0,-4.3413 -3.6121,-7.87263 -8.05012,-7.87263c-4.43768,0 -8.04977,3.53133 -8.04977,7.87263v3.13553c0,2.22569 -0.99712,4.32663 -2.74624,5.77296c-0.44735,0.37335 -0.70381,0.91877 -0.70381,1.49468c0,1.08548 0.90271,1.96828 2.01244,1.96828h18.97488c1.10996,0 2.01267,-0.8828 2.01267,-1.96828c0,-0.57591 -0.25658,-1.12133 -0.71434,-1.50475z"/></symbol><symbol viewBox="0 0 20 20" id="notification-1" xmlns="http://www.w3.org/2000/svg"><path d="M-0.00031,19.05238v-15.22318c0,-2.11191 1.80931,-3.82942 4.03404,-3.82942h11.9363c2.22485,0 4.03404,1.71751 4.03404,3.82942v8.65109c0,2.11178 -1.8092,2.74266 -4.03404,2.74266h-9.54575l-4.7707,4.56465c-0.18345,0.14554 -0.41336,0.22207 -0.64533,0.22207c-0.14523,0 -0.29251,-0.03049 -0.42767,-0.08993c-0.355,-0.15702 -0.5809,-0.49593 -0.5809,-0.86737zM2.01672,17.00947l3.39718,-3.47903c0.1815,-0.14363 0.40936,-0.22207 0.64545,-0.22207h9.9107c1.1134,0 2.01702,0.22679 2.01702,-0.82808v-8.65109c0,-1.055 -0.90363,-1.91471 -2.01702,-1.91471h-11.9363c-1.1134,0 -2.01702,0.85971 -2.01702,1.91471z" /></symbol><symbol viewBox="0 0 511.999 511.999" id="notification-2" xmlns="http://www.w3.org/2000/svg"><path d="M313.922,98.677c19.682-15.899,24.138-32.895,24.409-44.354c0.662-27.877-21.351-48.277-23.864-50.51
			c-6.224-5.536-15.758-4.978-21.295,1.247c-5.536,6.225-4.978,15.758,1.247,21.295c0.141,0.126,14.087,13.174,13.753,27.253
			c-0.178,7.501-4.498,14.567-13.207,21.602c-19.682,15.899-24.138,32.895-24.409,44.354c-0.663,27.877,21.351,48.277,23.863,50.511
			c2.881,2.562,6.477,3.824,10.058,3.824c4.156,0,8.293-1.7,11.267-5.045c5.536-6.225,5.008-15.732-1.217-21.268
			c-3.959-3.6-14.157-15.543-13.81-27.42C300.936,112.707,305.255,105.677,313.922,98.677z"/><path d="M218.217,98.677c19.682-15.899,24.138-32.895,24.409-44.354c0.662-27.877-21.351-48.277-23.864-50.51
			c-6.223-5.536-15.758-4.978-21.295,1.247c-5.536,6.225-4.978,15.758,1.247,21.295c0.141,0.126,14.087,13.174,13.753,27.253
			c-0.178,7.501-4.498,14.567-13.207,21.602c-19.682,15.899-24.138,32.895-24.409,44.354c-0.662,27.877,21.351,48.277,23.863,50.511
			c2.881,2.562,6.477,3.824,10.058,3.824c4.156,0,8.293-1.7,11.267-5.045c5.536-6.225,5.008-15.732-1.217-21.268
			c-3.959-3.6-14.157-15.543-13.81-27.42C205.231,112.707,209.55,105.677,218.217,98.677z"/><path d="M434.157,246.148h-17.852v-11.062c0-8.33-6.753-15.084-15.084-15.084H16.247c-8.33,0-15.084,6.753-15.084,15.084v79.608
			c0,70.343,38.935,132.196,97.389,167.138H16.256c-8.33,0-15.084,6.753-15.084,15.084s6.752,15.084,15.084,15.084h384.966
			c8.33,0,15.084-6.753,15.084-15.084s-6.753-15.084-15.084-15.084h-82.305c33.24-19.87,60.167-48.439,77.211-82.329h38.03
			c42.28,0,76.678-34.398,76.678-76.678C510.836,280.545,476.437,246.148,434.157,246.148z M386.138,314.694
			c-0.001,92.16-79.584,167.138-177.404,167.138c-97.82,0-177.403-74.978-177.403-167.138V250.17h354.806V314.694z M434.157,369.336
			h-25.956c5.271-17.359,8.104-35.692,8.104-54.642v-38.38h17.852c25.646,0,46.511,20.865,46.511,46.511
			S459.803,369.336,434.157,369.336z"/><path d="M122.512,98.678c19.682-15.899,24.138-32.895,24.409-44.354c0.662-27.877-21.351-48.277-23.864-50.51
			c-6.224-5.536-15.758-4.978-21.295,1.247c-5.536,6.224-4.978,15.758,1.247,21.295c0.141,0.126,14.087,13.174,13.753,27.253
			c-0.178,7.501-4.498,14.567-13.207,21.602c-19.682,15.899-24.138,32.895-24.409,44.354c-0.661,27.876,21.352,48.276,23.864,50.51
			c2.874,2.556,6.453,3.813,10.019,3.813c4.157,0,8.296-1.709,11.277-5.06c5.536-6.225,4.978-15.758-1.247-21.295
			c-0.141-0.126-14.087-13.174-13.753-27.253C109.482,112.779,113.802,105.712,122.512,98.678z"/></symbol><symbol viewBox="0 0 23 26" id="notification-3" xmlns="http://www.w3.org/2000/svg"><path d="M11.6703,24.19257v0v-0.00026v0h-0.14694v0h-10.27668c0,-7.51854 6.60038,-7.51688 8.06522,-9.48261l0.16754,-0.89645c-2.05788,-1.04326 -3.51048,-3.5585 -3.51048,-6.5004c0,-3.8756 2.5201,-6.36022 5.62809,-6.36022c3.10787,0 5.62809,2.48462 5.62809,6.36022c0,2.91678 -1.42685,5.4162 -3.45737,6.4763l0.19089,1.01852c1.60709,1.87071 7.98798,1.99278 7.98798,9.38491z" fill-opacity="0" fill="#ffffff" stroke-dashoffset="0" stroke-dasharray="" stroke-linejoin="miter" stroke-linecap="butt" stroke-opacity="1" stroke="#ffffff" stroke-miterlimit="20" stroke-width="2" /></symbol><symbol viewBox="0 0 20 14" id="notification-4" xmlns="http://www.w3.org/2000/svg"><path d="M18.12141,0.00995l1.88828,1.86446l-12.29095,12.12145l-7.70531,-7.55846l1.88793,-1.86446l5.81176,5.70099z" /></symbol><symbol viewBox="0 0 27 26" id="notification-5" xmlns="http://www.w3.org/2000/svg"><path d="M13.49989,0.99991v0l3.74554,8.05784v0l8.7394,1.11036v0l-6.4246,6.09032v0l1.65585,8.74408v0l-7.71618,-4.29372v0l-7.71606,4.29372v0l1.65585,-8.74408v0l-6.4246,-6.09032v0l8.7394,-1.11036v0z" fill="#ffffff" fill-opacity="0" /><path d="M13.49989,0.99991v0l3.74554,8.05784v0l8.7394,1.11036v0l-6.4246,6.09032v0l1.65585,8.74408v0l-7.71618,-4.29372v0l-7.71606,4.29372v0l1.65585,-8.74408v0l-6.4246,-6.09032v0l8.7394,-1.11036v0z" fill-opacity="0" fill="#ffffff" stroke-linejoin="round" stroke-linecap="round" stroke-opacity="1" stroke="#ffffff" stroke-miterlimit="20" stroke-width="2"/></symbol><symbol viewBox="0 0 512 512" id="notification-6" xmlns="http://www.w3.org/2000/svg"><path d="M365.955,191l77.444-116.166c9.451-14.177-0.712-33.167-17.75-33.167h-320V20.333C105.649,8.551,96.097-1,84.315-1
			C72.533-1,62.982,8.551,62.982,20.333V63v256v170.667c0,11.782,9.551,21.333,21.333,21.333c11.782,0,21.333-9.551,21.333-21.333
			V340.333h320c17.039,0,27.202-18.99,17.75-33.167L365.955,191z M105.649,297.667V84.333h280.138l-63.222,94.833
			c-4.777,7.166-4.777,16.501,0,23.667l63.222,94.833H105.649z"/></symbol><symbol viewBox="0 0 19 26" id="notification-7" xmlns="http://www.w3.org/2000/svg"><path d="M12.48566,10.33149c0,-2.07594 -1.67324,-3.7631 -3.73215,-3.7631c-0.5619,0 -1.01784,-0.4597 -1.01784,-1.0263c0,-0.56672 0.45593,-1.02643 1.01784,-1.02643c3.17974,0 5.76782,2.60963 5.76782,5.81582c0,0.56659 -0.45593,1.0263 -1.01784,1.0263c-0.5619,0 -1.01784,-0.4597 -1.01784,-1.0263zM7.80354,25.99996c-1.14407,0 -2.37499,-0.87566 -2.37499,-2.797v-2.41409c0,-1.45156 -0.61329,-2.78463 -1.64085,-3.56475c-2.96539,-2.25107 -4.33743,-5.95384 -3.58131,-9.66387c0.73952,-3.63452 3.65593,-6.58612 7.25647,-7.34545c2.86217,-0.60601 5.79243,0.09579 8.0262,1.92657c2.23091,1.82823 3.51093,4.53926 3.51093,7.43754c0,2.95287 -1.32339,5.69375 -3.63052,7.52364c-1.14269,0.90576 -1.7981,2.16752 -1.7981,3.46079v3.04191c0,1.32057 -1.06522,2.3947 -2.37499,2.3947zM7.87666,2.22365c-2.81731,0.59389 -5.09846,2.90389 -5.67799,5.7486c-0.59601,2.9243 0.4818,5.84184 2.8117,7.61114c1.3006,0.98785 2.15777,2.53568 2.38931,4.25864l4.17852,0c0.2028,-1.66235 1.10061,-3.21853 2.53194,-4.35418c1.81435,-1.4369 2.85404,-3.59077 2.85404,-5.90894c0,-2.27722 -1.00685,-4.40763 -2.76031,-5.84452c-1.3409,-1.09747 -3.0035,-1.67912 -4.72286,-1.67912c-0.53204,0 -1.06819,0.05612 -1.60435,0.16837zM7.46284,23.20295c0,0.12462 0.01637,0.7444 0.33932,0.7444h3.39283c0.18723,0 0.33932,-0.15345 0.33932,-0.3421l0,-1.71063l-4.07146,0z" fill="#ffffff" fill-opacity="1"/></symbol>
    <symbol viewBox="0 0 53 29" id="vk" xmlns="http://www.w3.org/2000/svg"><path d="M44.82275,18.66531c1.72492,1.60119 3.54531,3.10394 5.09207,4.86434c0.68334,0.78116 1.3303,1.59043 1.82531,2.49802c0.7012,1.28992 0.06592,2.70944 -1.15248,2.78588l-7.57494,-0.00199c-1.95365,0.1537 -3.5121,-0.59421 -4.82271,-1.8633c-1.04876,-1.01354 -2.01999,-2.09274 -3.02852,-3.13999c-0.41331,-0.42915 -0.84606,-0.83326 -1.36293,-1.15226c-1.03407,-0.63776 -1.9317,-0.4411 -2.52259,0.58321c-0.60198,1.03964 -0.73833,2.19412 -0.79741,3.35527c-0.08103,1.69379 -0.62026,2.13817 -2.4121,2.21707c-3.82903,0.17021 -7.46304,-0.37905 -10.83887,-2.21273c-2.97645,-1.61747 -5.2845,-3.90021 -7.29347,-6.4852c-3.91114,-5.03291 -6.90628,-10.56241 -9.59827,-16.24596c-0.60607,-1.28103 -0.16289,-1.96795 1.32521,-1.99219c2.47127,-0.04683 4.94187,-0.04355 7.41597,-0.00316c1.00428,0.01288 1.66935,0.56015 2.05687,1.4613c1.33715,3.12033 2.97303,6.0921 5.0264,8.84403c0.54699,0.73305 1.10458,1.46599 1.89857,1.98259c0.87852,0.57022 1.54718,0.38092 1.96049,-0.54833c0.26211,-0.58871 0.37726,-1.22226 0.43634,-1.8544c0.1956,-2.17118 0.2213,-4.33919 -0.12192,-6.50054c-0.21079,-1.35197 -1.01162,-2.22479 -2.43063,-2.48034c-0.7239,-0.13099 -0.61609,-0.38455 -0.26544,-0.77988c0.60866,-0.67698 1.18135,-1.0977 2.32298,-1.0977h8.56086c1.34766,0.25344 1.64673,0.82928 1.8314,2.11674l0.00726,9.02876c-0.01469,0.49811 0.26219,1.97709 1.20789,2.30802c0.75678,0.23577 1.2557,-0.33972 1.70974,-0.79615c2.0497,-2.06652 3.5126,-4.50554 4.81937,-7.03376c0.58012,-1.11281 1.07863,-2.26612 1.56187,-3.4206c0.35824,-0.85515 0.92016,-1.27669 1.93529,-1.25691l8.23917,0.00738c0.24433,0 0.49167,0.00211 0.72832,0.04062c1.3883,0.22371 1.76857,0.79076 1.33998,2.07823c-0.67567,2.02052 -1.99037,3.70354 -3.27561,5.39546c-1.37411,1.80407 -2.84344,3.54925 -4.2062,5.36362c-1.25186,1.65902 -1.1524,2.49427 0.40271,3.93486z" ></path></symbol>
    <symbol viewBox="0 0 42 41" id="inst" xmlns="http://www.w3.org/2000/svg"><path d="M5.6833,0.33864h30.35417c2.88399,0 5.24161,2.3113 5.24161,5.13265v29.72664c0,2.82182 -2.35761,5.13171 -5.24161,5.13171h-30.35417c-2.88391,0 -5.24395,-2.3099 -5.24395,-5.13171v-29.72664c0,-2.82135 2.36003,-5.13265 5.24395,-5.13265zM30.19054,4.7791c-1.01254,0 -1.83849,0.81301 -1.83849,1.80325v4.30887c0,0.99012 0.82595,1.79985 1.83849,1.79985h4.61518c1.01087,0 1.83866,-0.80973 1.83866,-1.79985v-4.30887c0,-0.99024 -0.82779,-1.80325 -1.83866,-1.80325zM36.66181,17.2487h-3.59304c0.34055,1.09091 0.5253,2.23849 0.5253,3.43558c0,6.64886 -5.68571,12.04174 -12.69655,12.04174c-7.00909,0 -12.69472,-5.39288 -12.69472,-12.04174c0,-1.19709 0.1865,-2.34467 0.5253,-3.43558h-3.74875v16.89437c0,0.87505 0.72957,1.5875 1.62228,1.5875h28.43882c0.89346,0 1.62137,-0.71245 1.62137,-1.5875zM20.89785,12.46432c-4.52797,0 -8.20071,3.48369 -8.20071,7.78426c0,4.29752 3.67273,7.78145 8.20071,7.78145c4.52998,0 8.20313,-3.48393 8.20313,-7.78145c0,-4.30056 -3.67315,-7.78426 -8.20312,-7.78426z"></path></symbol>
    <symbol viewBox="0 0 42 34" id="youtube" xmlns="http://www.w3.org/2000/svg"><path d="M41.59817,12.762v8.24162c0,5.22572 -0.85391,8.24268 -2.85537,10.09181c-1.95148,1.80196 -4.96824,2.53735 -10.41212,2.53735h-14.33244c-11.21521,0 -13.26691,-4.25456 -13.26691,-12.62916v-8.24162c0,-4.32444 0,-7.44817 1.72918,-9.56971c1.77391,-2.17305 5.11669,-3.05899 11.53773,-3.05899h14.33227c6.27776,0 9.56472,0.8315 11.34522,2.87426c1.78843,2.05247 1.92244,5.19434 1.92244,9.75444zM29.0227,16.65834c-0.00075,-0.57326 -0.33128,-1.0977 -0.85783,-1.36203l-10.3477,-5.18591c-0.493,-0.24829 -1.08414,-0.22699 -1.55936,0.05045c-0.47498,0.27885 -0.76495,0.77625 -0.76495,1.31287v10.40589c0,0.53627 0.29081,1.03578 0.76671,1.31252c0.25284,0.14773 0.53815,0.22113 0.82445,0.22113c0.25251,0 0.50552,-0.05537 0.73683,-0.17279l10.3477,-5.21939c0.52563,-0.26714 0.85499,-0.79088 0.85416,-1.36274z" ></path></symbol>
    <symbol viewBox="0 0 45 40" id="telegram" xmlns="http://www.w3.org/2000/svg"><path d="M0.75224,16.85006l42.58375,-16.74055c0.90272,-0.35587 1.83424,0.44988 1.63764,1.416l-7.64203,37.45962c-0.17999,0.88395 -1.19754,1.28547 -1.91585,0.75365l-10.4319,-7.71812c-0.63369,-0.46896 -1.4972,-0.44355 -2.10344,0.05935l-5.78384,4.80464c-0.67141,0.56015 -1.68303,0.24876 -1.93996,-0.59527l-4.01611,-13.16122l-10.37616,-3.94668c-1.05393,-0.40246 -1.06311,-1.91844 -0.0121,-2.33144zM13.61727,23.36792l2.19256,7.85122c0.15563,0.55629 0.94812,0.49881 1.02355,-0.07644l0.57019,-4.30501c0.10748,-0.80996 0.48691,-1.55706 1.07521,-2.11569l16.73586,-15.85239c0.31301,-0.2957 -0.06208,-0.79779 -0.42641,-0.56987l-20.27884,12.7275c-0.7773,0.48862 -1.14322,1.44527 -0.89213,2.34069z"></path></symbol>
    <symbol viewBox="0 0 22 45" id="fb" xmlns="http://www.w3.org/2000/svg"><path d="M21.13849,24.74315v0l-6.43431,0.00538v0l-0.00426,20.25082v0h-8.82488v0v-20.25082v0h-5.88757v0v-8.52761v0l5.88757,-0.0055v0l-0.0091,-5.02308c0,-6.96153 1.79402,-11.19373 9.59084,-11.19373h6.49581v0v8.53229v0h-4.06209c-3.03745,0 -3.18632,1.19042 -3.18632,3.41427l-0.0091,4.27024v0h7.30082v0z"></path></symbol>
    <symbol viewBox="0 0 29 49" id="ok" xmlns="http://www.w3.org/2000/svg"><path d="M26.68433,12.57152c-0.03104,6.77423 -5.5406,12.26545 -12.27974,12.24098c-6.67272,-0.02154 -12.14414,-5.64223 -12.10258,-12.42746c0.03463,-6.86238 5.50956,-12.39223 12.24794,-12.3742c6.75241,0.01709 12.16884,5.62795 12.13437,12.56068zM22.93716,33.1555c-1.88389,0.74195 -3.95128,1.11562 -5.99722,1.36496c0.30758,0.34136 0.45295,0.50981 0.64704,0.70695c2.77743,2.83469 5.56805,5.65592 8.33489,8.50139c0.94228,0.968 1.14005,2.17106 0.62059,3.29663c-0.56827,1.23092 -1.83958,2.04323 -3.08585,1.95496c-0.78999,-0.05584 -1.40599,-0.45292 -1.95307,-1.01307c-2.09476,-2.14133 -4.23124,-4.24835 -6.28519,-6.42936c-0.59931,-0.63659 -0.88654,-0.51332 -1.41308,0.03512c-2.10803,2.20524 -4.25177,4.379 -6.40594,6.53566c-0.96973,0.97069 -2.11954,1.14629 -3.24457,0.5907c-1.19145,-0.58707 -1.95298,-1.82174 -1.89432,-3.06706c0.04156,-0.8411 0.45028,-1.48495 1.01755,-2.06114c2.75006,-2.78599 5.48919,-5.58299 8.23216,-8.37543c0.18342,-0.18625 0.35281,-0.3835 0.616,-0.67171c-3.74016,-0.39427 -7.11323,-1.32996 -10.00056,-3.62347c-0.35715,-0.28458 -0.72782,-0.56272 -1.05318,-0.8788c-1.26405,-1.23455 -1.39172,-2.64564 -0.39086,-4.10179c0.85541,-1.24532 2.28885,-1.57579 3.78088,-0.86159c0.29073,0.13685 0.5646,0.31326 0.83146,0.49612c5.37754,3.7568 12.77099,3.85841 18.16972,0.16845c0.53639,-0.41522 1.10809,-0.75646 1.7694,-0.92855c1.29167,-0.33761 2.4938,0.14411 3.18265,1.29133c0.79241,1.30842 0.78264,2.58535 -0.19068,3.5983c-1.49286,1.55776 -3.28988,2.68345 -5.28784,3.4714zM20.46807,12.40224c-0.0141,-3.37319 -2.65594,-6.053 -5.96601,-6.05663c-3.33853,-0.00363 -6.00514,2.72934 -5.98119,6.13038c0.02478,3.35609 2.6914,6.01882 6.01215,6.00793c3.31016,-0.01346 5.94573,-2.71119 5.93505,-6.08168z"></path></symbol>
    <symbol viewBox="0 0 2655.95 2476.44" id="news" xmlns="http://www.w3.org/2000/svg"><path d="M801.54 220.55l0 1099.73 -0.11 0 0 926.96c0,2.48 -0.07,4.95 -0.19,7.41l1211.48 0.06 0 -0.86c15.51,0 27.95,0.91 72.76,1.85 43.21,0.9 88.91,1.85 128.49,-1.24 23.9,-1.87 53.31,-11.19 82.15,-24.98 29.14,-13.94 53.53,-29.77 67.01,-44.51 21.78,-23.81 41.67,-53.82 55.85,-86.86 10.2,-23.76 16.44,-47.82 16.44,-69.83l0 -1807.73 -1633.86 0zm-212.8 1099.73l-210.06 0c-37.32,0 -76.11,20.12 -107.06,51.07 -30.95,30.95 -51.07,69.74 -51.07,107.06l0 616.97c0,9.69 1.64,19.61 4.12,28.65 3.63,13.25 8.31,24.63 12.62,32.06 17.87,30.79 42.27,56.89 70.85,74.53 23.8,14.69 50.44,23.54 78.13,23.97 67.62,1.04 135.94,0.04 203.65,0.04 -0.77,-7.26 -1.17,-14.65 -1.17,-22.12l0 -912.25zm557.68 536.81l689.92 0c24.59,0 53.54,-22.81 66.08,-37.66 54.74,-64.83 15.72,-175.02 -92.02,-175.02l-648.42 0c-52.98,0 -100.4,40.03 -107.12,100.56 -3.09,27.81 10.41,58.94 25.18,74.75 13.43,14.39 41.13,37.36 66.38,37.36zm10.37 -985.61l669.17 0c135.97,0 131.66,-212.68 -5.19,-212.68l-658.8 0c-60.61,0 -104.47,49.23 -107.59,104.81 -3.08,54.9 47,107.88 102.4,107.88zm-5.19 508.37l928.54 0c130.95,0 137.2,-212.69 -15.56,-212.69l-902.61 0c-52.98,0 -100.4,40.03 -107.12,100.56 -6.05,54.42 44.18,112.12 96.75,112.12zm-570.61 -1276.1l0 995.98 -202.31 0c-196.41,0 -378.68,182.27 -378.68,378.68l0 616.97c0,61.93 24.09,131.71 46.88,170.99 68.72,118.41 192.21,205.68 336.79,207.92 42.66,0.66 63.13,-0.2 103.87,0.03l1525.16 0.07c66.85,0 153.15,4.79 217.61,-0.26 101.27,-7.93 229.31,-69.45 294.75,-140.99 72.11,-78.83 130.87,-193.24 130.87,-304.87l0 -1929.71c0,-52.5 -51.85,-98.56 -103.75,-98.56l-1867.47 0c-53.69,0 -103.75,50.05 -103.75,103.75z"/></symbol>
    <symbol viewBox="0 0 512 512" id="appstore" xmlns="http://www.w3.org/2000/svg"><path d="M333.6,153.9c-33.6,0-47.8,16.5-71.2,16.5c-24,0-42.3-16.4-71.4-16.4c-28.5,0-58.9,17.9-78.2,48.4   c-27.1,43-22.5,124,21.4,193c15.7,24.7,36.7,52.4,64.2,52.7c0.2,0,0.3,0,0.5,0c23.9,0,31-16.1,63.9-16.3c0.2,0,0.3,0,0.5,0   c32.4,0,38.9,16.2,62.7,16.2c0.2,0,0.3,0,0.5,0c27.5-0.3,49.6-31,65.3-55.6c11.3-17.7,15.5-26.6,24.2-46.6   c-63.5-24.8-73.7-117.4-10.9-152.9C385.9,168.2,359,153.9,333.6,153.9L333.6,153.9z"/><path d="M326.2,64c-20,1.4-43.3,14.5-57,31.6c-12.4,15.5-22.6,38.5-18.6,60.8c0.5,0,1,0,1.6,0c21.3,0,43.1-13.2,55.8-30.1   C320.3,110.2,329.6,87.4,326.2,64L326.2,64z"/></symbol>
    <symbol viewBox="0 0 56.6934 56.6934" id="gplay" xmlns="http://www.w3.org/2000/svg"><path d="M39.332,18.0622L12.6744,3.7905C11.2891,3.0489,9.787,3.011,8.4869,3.485l22.7111,22.7111L39.332,18.0622z"/><path d="M49.2731,23.3844l-7.6787-4.1109l-8.6595,8.6594l8.6595,8.6595l7.6786-4.111   C52.9054,30.5368,52.9054,25.329,49.2731,23.3844z"/><path d="M6.4077,4.8794C5.5932,5.7746,5.0798,6.9697,5.0798,8.339v39.1878c0,1.3693,0.5134,2.5645,1.3278,3.4597l23.0536-23.0536   L6.4077,4.8794z"/><path d="M8.4869,52.3809c1.3,0.4739,2.8022,0.4362,4.1875-0.3055L39.332,37.8037l-8.1339-8.1339L8.4869,52.3809z"/></symbol>
    <symbol viewBox="0 0 30 30" id="gift" xmlns="http://www.w3.org/2000/svg"><path d="M24,16v10c0,0.6-0.4,1-1,1H7c-0.6,0-1-0.4-1-1V16h8v9h2v-9H24z M14,9H5c-0.6,0-1,0.4-1,1v3c0,0.6,0.4,1,1,1h9V9  z M25,9h-9v5h9c0.6,0,1-0.4,1-1v-3C26,9.4,25.6,9,25,9z M22.1,7.9l0.1-0.4c0.4-1,0.3-2.2-0.3-3.1C21.3,3.5,20.2,3,19.1,3  c-1.4,0-2.6,0.8-3.1,2.1l-2,4.9H19C20.3,10,21.6,9.2,22.1,7.9z M17.9,5.8C18.1,5.3,18.6,5,19.1,5c0.4,0,0.8,0.2,1.1,0.6  c0.2,0.4,0.3,0.8,0.1,1.2l-0.1,0.4C20,7.7,19.5,8,19,8h-2L17.9,5.8z M14,5.1C13.5,3.8,12.2,3,10.9,3C9.8,3,8.7,3.5,8.1,4.5  C7.5,5.4,7.4,6.5,7.8,7.6l0.1,0.4C8.4,9.2,9.7,10,11,10h4.9L14,5.1z M12.1,5.8L13,8h-2c-0.5,0-1-0.3-1.2-0.8L9.6,6.8  C9.5,6.4,9.5,5.9,9.8,5.6C10,5.2,10.4,5,10.9,5C11.4,5,11.9,5.3,12.1,5.8z"/></symbol>
    <symbol viewBox="0 0 29 22.5" id="back" xmlns="http://www.w3.org/2000/svg"><path xmlns="http://www.w3.org/2000/svg" d="M0.3,12.4c0,0-0.1-0.1-0.1-0.2c0-0.1-0.1-0.1-0.1-0.2c0-0.1,0-0.1-0.1-0.2  c0-0.1,0-0.1-0.1-0.2C0,11.4,0,11.1,0,10.9c0-0.1,0-0.1,0.1-0.2c0-0.1,0-0.1,0.1-0.2c0-0.1,0.1-0.1,0.1-0.2c0-0.1,0.1-0.1,0.1-0.2  C0.4,10,0.5,9.9,0.6,9.9l9.3-9.3c0.8-0.8,2-0.8,2.8,0c0.8,0.8,0.8,2,0,2.8L6.8,9.3H27c1.1,0,2,0.9,2,2s-0.9,2-2,2H6.8l5.9,5.9  c0.8,0.8,0.8,2,0,2.8c-0.4,0.4-0.9,0.6-1.4,0.6s-1-0.2-1.4-0.6l-9.3-9.3C0.5,12.6,0.4,12.5,0.3,12.4z"/></symbol>
	<symbol width="27" height="24" id="share" viewBox="0 0 27 24" xmlns="http://www.w3.org/2000/svg"><path d="M13 15.0625H10.6C8.63152 15.0618 6.70028 15.5935 5.01505 16.6002C3.32982 17.6069 1.95472 19.0503 1.0384 20.7744C1.01265 20.4544 0.999835 20.1335 1 19.8125C1 13.2539 6.3724 7.9375 13 7.9375V2L25 11.5L13 21V15.0625Z" stroke-width="1.5"/></symbol>
	<symbol width="24" height="24" id="thumb-up" viewBox="0 0 24 24" xmlns="http://www.w3.org/2000/svg"><path d="M8.9082 20.9999H18.0891C18.4836 20.9996 18.8688 20.8947 19.1944 20.6991C19.52 20.5034 19.7708 20.2261 19.9141 19.9033L22.9615 13.557C23.0545 13.3471 23.1017 13.1238 23.1006 12.8986V11.0892C23.1006 10.1005 22.1932 8.9988 21.0817 8.9988H14.7209L15.6819 5.17908L15.7142 4.89796C15.7141 4.54216 15.5551 4.20061 15.2712 3.9467L14.1931 3L7.46727 8.96891C7.0888 9.30802 6.87781 9.76447 6.88006 10.2393V19.2377C6.88081 19.4705 6.93394 19.7009 7.03639 19.9157C7.13884 20.1304 7.2886 20.3252 7.47706 20.489C7.66552 20.6527 7.88897 20.7822 8.13457 20.8698C8.38017 20.9575 8.64308 21.0017 8.9082 20.9999V20.9999Z" stroke-width="1.5" stroke-linejoin="round"/><path d="M0.900264 10.5012H4.31799V21H0.900264V10.5012Z" stroke-width="1.5" stroke-linejoin="round"/></symbol>
	<symbol width="24" height="24" id="thumb-down" viewBox="0 0 24 24" xmlns="http://www.w3.org/2000/svg"><path d="M15.0925 3.00005H5.91168C5.51715 3.00044 5.13193 3.1053 4.80633 3.30094C4.48073 3.49658 4.22989 3.7739 4.08659 4.09668L1.03918 10.443C0.946189 10.6529 0.899029 10.8762 0.900167 11.1014V12.9108C0.900167 13.8995 1.80752 15.0012 2.91908 15.0012H9.2798L8.3188 18.8209L8.2865 19.102C8.28661 19.4578 8.44568 19.7994 8.72951 20.0533L9.8076 21L16.5335 15.0311C16.9119 14.692 17.1229 14.2355 17.1207 13.7607V4.76226C17.1199 4.52945 17.0668 4.29906 16.9643 4.08434C16.8619 3.86961 16.7121 3.67478 16.5237 3.51103C16.3352 3.34728 16.1118 3.21784 15.8662 3.13015C15.6206 3.04246 15.3577 2.99825 15.0925 3.00005Z" stroke-width="1.5" stroke-linejoin="round"/><path d="M23.1005 13.4988H19.6828V3H23.1005V13.4988Z" stroke-width="1.5" stroke-linejoin="round"/></symbol>
	<symbol id="lightning" viewBox="0 0 29 29" xmlns="http://www.w3.org/2000/svg"><path d="M22.6336 10.7617H18.7594L24.1289 2.69609C24.4914 2.12969 24.5367 1.42734 24.2195 0.838281C23.9023 0.249218 23.2906 -0.113281 22.6109 -0.113281H13.5484C12.8914 -0.113281 12.3023 0.226562 11.9851 0.792969L4.73514 13.4805C4.41796 14.0469 4.41796 14.7266 4.73514 15.293C5.05233 15.8594 5.66405 16.1992 6.29842 16.1992H12.2344L6.52499 26.168C6.07186 26.9609 6.27577 27.9578 7.00077 28.5016C7.31796 28.7508 7.72577 28.8641 8.11092 28.8641C8.58671 28.8641 9.03983 28.6828 9.40233 28.343L23.9023 13.843C24.4234 13.3219 24.582 12.5516 24.2875 11.8719C24.0156 11.2148 23.3586 10.7617 22.6336 10.7617ZM8.58671 26.168L15.6328 15.0664C15.6328 15.0664 15.6328 14.9078 15.6328 14.8398C15.6328 14.3414 15.225 13.9336 14.7266 13.9336H7.00077L13.7976 2.15234H21.7273L15.4742 11.3055C15.4742 11.3055 15.2703 11.6906 15.2703 11.8945C15.2703 12.393 15.6781 12.8008 16.1765 12.8008H21.9539L8.58671 26.168Z" /></symbol>
	<symbol id="arrow-right" viewBox="0 0 15 25" xmlns="http://www.w3.org/2000/svg"><path d="M2.157 0L15 12.5045L12.843 14.6047L0 2.10016L2.157 0Z"/><path d="M4.41826e-05 22.8998L12.843 10.3953L15 12.4955L2.15704 25L4.41826e-05 22.8998Z"/></symbol>
	<symbol id="arrow-left" viewBox="0 0 15 25" xmlns="http://www.w3.org/2000/svg"><path d="M12.843 25L4.29362e-05 12.4955L2.15704 10.3953L15 22.8998L12.843 25Z"/><path d="M15 2.10016L2.157 14.6047L-7.00147e-07 12.5045L12.843 6.32858e-07L15 2.10016Z"/></symbol>
	<symbol id="close-2" viewBox="0 0 16 16" xmlns="http://www.w3.org/2000/svg"><path d="M1 1L15.293 15.2929M15.293 1L1.00003 15.2929" stroke-width="2"/></symbol>
</svg>