<svg width="22" height="22" viewBox="0 0 22 22" fill="none" xmlns="http://www.w3.org/2000/svg">
<path d="M17.2161 5.79257C17.3056 5.70118 17.4125 5.62857 17.5305 5.579C17.6485 5.52944 17.7752 5.50391 17.9032 5.50391C18.0311 5.50391 18.1578 5.52944 18.2758 5.579C18.3938 5.62857 18.5007 5.70118 18.5903 5.79257C18.9656 6.17188 18.9709 6.78482 18.6034 7.17069L10.8426 16.3451C10.7545 16.4418 10.6475 16.5196 10.5283 16.5736C10.4091 16.6276 10.2802 16.6567 10.1493 16.6592C10.0185 16.6617 9.8885 16.6374 9.76735 16.5879C9.64621 16.5384 9.53644 16.4647 9.44475 16.3713L4.72238 11.5859C4.54025 11.4002 4.43823 11.1505 4.43823 10.8903C4.43823 10.6302 4.54025 10.3804 4.72238 10.1947C4.81195 10.1033 4.91886 10.0307 5.03684 9.98113C5.15482 9.93156 5.2815 9.90603 5.40947 9.90603C5.53744 9.90603 5.66413 9.93156 5.78211 9.98113C5.90009 10.0307 6.00699 10.1033 6.09657 10.1947L10.1023 14.2543L17.1898 5.82144C17.198 5.8113 17.2067 5.80166 17.2161 5.79257Z" fill="white"/>
</svg>
