<svg width="45" height="45" viewBox="0 0 45 45" fill="none" xmlns="http://www.w3.org/2000/svg">
<circle cx="22.5" cy="22.5" r="22.5" fill="#E5EEF5"/>
<path fill-rule="evenodd" clip-rule="evenodd" d="M15.3053 12.552V16.4C14.3529 16.4 13.6122 16.296 13.0831 16.816C12.9773 17.024 12.7656 17.232 12.7656 17.648V30.752C12.7656 31.376 13.4005 32 13.9296 32H29.5911C30.226 32 30.7551 31.376 30.7551 30.752V17.544C30.7551 16.92 30.1202 16.4 29.4852 16.4H29.5911C29.1678 16.4 28.7445 16.4 28.3212 16.4V12.552C28.3212 11.512 28.0038 10.68 27.7921 9.952C27.4747 9.224 27.0514 8.6 26.5223 8.08C25.9932 7.56 25.4641 7.04 24.7233 6.728C23.5593 6.104 22.9244 6 21.8662 6C20.808 6 20.0672 6.104 19.009 6.624C18.2683 7.04 17.7392 7.456 17.2101 8.08C16.681 8.6 16.2577 9.224 15.9402 9.952C15.6228 10.784 15.3053 11.616 15.3053 12.552ZM25.6757 16.4H21.8662H17.9508V12.344C17.9508 11.616 18.2683 10.888 18.5857 10.264C18.7974 10.056 18.7974 9.952 19.009 9.744C19.8556 8.912 20.808 8.496 21.7604 8.6C22.7127 8.6 23.6651 8.912 24.5117 9.744C24.7233 9.952 24.8292 10.056 24.935 10.264C25.2524 10.784 25.5699 11.616 25.5699 12.344V16.4H25.6757ZM21.7604 21.08C22.8186 21.08 23.6651 21.912 23.6651 22.952C23.6651 23.68 23.2418 24.408 22.6069 24.72V26.592C22.6069 27.008 22.2895 27.424 21.7604 27.424C21.3371 27.424 20.9138 27.112 20.9138 26.592V24.72C20.2789 24.408 19.8556 23.784 19.8556 22.952C19.8556 21.912 20.7022 21.08 21.7604 21.08Z" fill="#BCC6CD"/>
</svg>
