<svg width="13" height="13" viewBox="0 0 13 13" fill="none" xmlns="http://www.w3.org/2000/svg">
<path d="M7.54285 8.12008H0.953067V6.10701H7.48263C8.01601 6.10701 8.44042 6.02385 8.75586 5.85753C9.07703 5.69121 9.30931 5.4618 9.45269 5.1693C9.59607 4.87107 9.66776 4.53269 9.66776 4.15416C9.66776 3.78137 9.59033 3.44013 9.43548 3.13042C9.28637 2.81499 9.05409 2.56264 8.73865 2.37337C8.42895 2.17838 8.03322 2.08088 7.55146 2.08088H5.2717V12.585H2.69084V0.0592057H7.54285C8.52931 0.0592057 9.37239 0.23413 10.0721 0.58398C10.7775 0.933829 11.3195 1.41559 11.698 2.02926C12.0766 2.64293 12.2658 3.3455 12.2658 4.13696C12.2658 4.96857 12.0708 5.6826 11.6808 6.27907C11.2966 6.87553 10.7517 7.33148 10.0463 7.64692C9.34659 7.96236 8.51211 8.12008 7.54285 8.12008ZM8.01601 8.82551V10.8386H0.953067V8.82551H8.01601Z" fill="#28293D"/>
</svg>
