<svg width="16" height="16" viewBox="0 0 16 16" fill="none" xmlns="http://www.w3.org/2000/svg">
<path d="M9.41059 9.42937C9.03487 9.67984 8.59846 9.81225 8.1485 9.81225C7.69858 9.81225 7.26216 9.67984 6.88645 9.42937L0.698206 5.30374C0.663874 5.28085 0.630426 5.25699 0.597656 5.23245V11.9927C0.597656 12.7678 1.22665 13.3829 1.98787 13.3829H14.3091C15.0842 13.3829 15.6993 12.754 15.6993 11.9927V5.23242C15.6665 5.25702 15.633 5.28094 15.5986 5.30386L9.41059 9.42937Z" fill="#8F90A6"/>
<path d="M1.18904 4.56735L7.37729 8.693C7.61154 8.84918 7.88001 8.92726 8.14847 8.92726C8.41697 8.92726 8.68547 8.84915 8.91972 8.693L15.108 4.56735C15.4783 4.32062 15.6994 3.90768 15.6994 3.46201C15.6994 2.69568 15.0759 2.07227 14.3096 2.07227H1.9874C1.2211 2.0723 0.597656 2.69571 0.597656 3.46274C0.597656 3.90768 0.818754 4.32062 1.18904 4.56735Z" fill="#8F90A6"/>
</svg>
